<svg width="618" height="155" viewBox="0 0 618 155" fill="none" xmlns="http://www.w3.org/2000/svg">
<path d="M15.5 21.5L0 38V116.5L15.5 133.5V21.5Z" fill="white"/>
<path d="M63.5 21.5L32 38V116.5L63.5 133.5V21.5Z" fill="white"/>
<path d="M129 21.5L80 38V116.5L129 133.5V21.5Z" fill="white"/>
<path d="M171.091 45.0455V30.9091H245.364V45.0455H216.591V124H199.864V45.0455H171.091ZM272.884 125.364C266.066 125.364 260.157 123.864 255.157 120.864C250.157 117.864 246.278 113.667 243.52 108.273C240.793 102.879 239.43 96.5758 239.43 89.3636C239.43 82.1515 240.793 75.8333 243.52 70.4091C246.278 64.9848 250.157 60.7727 255.157 57.7727C260.157 54.7727 266.066 53.2727 272.884 53.2727C279.702 53.2727 285.611 54.7727 290.611 57.7727C295.611 60.7727 299.475 64.9848 302.202 70.4091C304.96 75.8333 306.339 82.1515 306.339 89.3636C306.339 96.5758 304.96 102.879 302.202 108.273C299.475 113.667 295.611 117.864 290.611 120.864C285.611 123.864 279.702 125.364 272.884 125.364ZM272.975 112.182C276.672 112.182 279.763 111.167 282.248 109.136C284.733 107.076 286.581 104.318 287.793 100.864C289.036 97.4091 289.657 93.5606 289.657 89.3182C289.657 85.0455 289.036 81.1818 287.793 77.7273C286.581 74.2424 284.733 71.4697 282.248 69.4091C279.763 67.3485 276.672 66.3182 272.975 66.3182C269.187 66.3182 266.036 67.3485 263.52 69.4091C261.036 71.4697 259.172 74.2424 257.93 77.7273C256.717 81.1818 256.111 85.0455 256.111 89.3182C256.111 93.5606 256.717 97.4091 257.93 100.864C259.172 104.318 261.036 107.076 263.52 109.136C266.036 111.167 269.187 112.182 272.975 112.182ZM330.359 30.9091V124H313.905V30.9091H330.359ZM357.334 30.9091V124H340.88V30.9091H357.334ZM398.218 151.636C392.309 151.636 387.233 150.833 382.991 149.227C378.748 147.652 375.339 145.53 372.764 142.864C370.188 140.197 368.4 137.242 367.4 134L382.218 130.409C382.885 131.773 383.855 133.121 385.127 134.455C386.4 135.818 388.112 136.939 390.264 137.818C392.445 138.727 395.188 139.182 398.491 139.182C403.158 139.182 407.021 138.045 410.082 135.773C413.142 133.53 414.673 129.833 414.673 124.682V111.455H413.855C413.006 113.152 411.764 114.894 410.127 116.682C408.521 118.47 406.385 119.97 403.718 121.182C401.082 122.394 397.764 123 393.764 123C388.4 123 383.536 121.742 379.173 119.227C374.839 116.682 371.385 112.894 368.809 107.864C366.264 102.803 364.991 96.4697 364.991 88.8636C364.991 81.197 366.264 74.7273 368.809 69.4545C371.385 64.1515 374.855 60.1364 379.218 57.4091C383.582 54.6515 388.445 53.2727 393.809 53.2727C397.9 53.2727 401.264 53.9697 403.9 55.3636C406.567 56.7273 408.688 58.3788 410.264 60.3182C411.839 62.2273 413.036 64.0303 413.855 65.7273H414.764V54.1818H430.991V125.136C430.991 131.106 429.567 136.045 426.718 139.955C423.87 143.864 419.976 146.788 415.036 148.727C410.097 150.667 404.491 151.636 398.218 151.636ZM398.355 110.091C401.839 110.091 404.809 109.242 407.264 107.545C409.718 105.848 411.582 103.409 412.855 100.227C414.127 97.0455 414.764 93.2273 414.764 88.7727C414.764 84.3788 414.127 80.5303 412.855 77.2273C411.612 73.9242 409.764 71.3636 407.309 69.5455C404.885 67.697 401.9 66.7727 398.355 66.7727C394.688 66.7727 391.627 67.7273 389.173 69.6364C386.718 71.5455 384.87 74.1667 383.627 77.5C382.385 80.803 381.764 84.5606 381.764 88.7727C381.764 93.0455 382.385 96.7879 383.627 100C384.9 103.182 386.764 105.667 389.218 107.455C391.703 109.212 394.748 110.091 398.355 110.091ZM461.545 125.409C457.121 125.409 453.136 124.621 449.591 123.045C446.076 121.439 443.288 119.076 441.227 115.955C439.197 112.833 438.182 108.985 438.182 104.409C438.182 100.47 438.909 97.2121 440.364 94.6364C441.818 92.0606 443.803 90 446.318 88.4545C448.833 86.9091 451.667 85.7424 454.818 84.9545C458 84.1364 461.288 83.5455 464.682 83.1818C468.773 82.7576 472.091 82.3788 474.636 82.0455C477.182 81.6818 479.03 81.1364 480.182 80.4091C481.364 79.6515 481.955 78.4848 481.955 76.9091V76.6364C481.955 73.2121 480.939 70.5606 478.909 68.6818C476.879 66.803 473.955 65.8636 470.136 65.8636C466.106 65.8636 462.909 66.7424 460.545 68.5C458.212 70.2576 456.636 72.3333 455.818 74.7273L440.455 72.5455C441.667 68.303 443.667 64.7576 446.455 61.9091C449.242 59.0303 452.652 56.8788 456.682 55.4545C460.712 54 465.167 53.2727 470.045 53.2727C473.409 53.2727 476.758 53.6667 480.091 54.4545C483.424 55.2424 486.47 56.5455 489.227 58.3636C491.985 60.1515 494.197 62.5909 495.864 65.6818C497.561 68.7727 498.409 72.6364 498.409 77.2727V124H482.591V114.409H482.045C481.045 116.348 479.636 118.167 477.818 119.864C476.03 121.53 473.773 122.879 471.045 123.909C468.348 124.909 465.182 125.409 461.545 125.409ZM465.818 113.318C469.121 113.318 471.985 112.667 474.409 111.364C476.833 110.03 478.697 108.273 480 106.091C481.333 103.909 482 101.53 482 98.9545V90.7273C481.485 91.1515 480.606 91.5455 479.364 91.9091C478.152 92.2727 476.788 92.5909 475.273 92.8636C473.758 93.1364 472.258 93.3788 470.773 93.5909C469.288 93.803 468 93.9848 466.909 94.1364C464.455 94.4697 462.258 95.0152 460.318 95.7727C458.379 96.5303 456.848 97.5909 455.727 98.9545C454.606 100.288 454.045 102.015 454.045 104.136C454.045 107.167 455.152 109.455 457.364 111C459.576 112.545 462.394 113.318 465.818 113.318ZM543.418 54.1818V66.9091H503.282V54.1818H543.418ZM513.191 37.4545H529.645V103C529.645 105.212 529.979 106.909 530.645 108.091C531.342 109.242 532.252 110.03 533.373 110.455C534.494 110.879 535.736 111.091 537.1 111.091C538.13 111.091 539.07 111.015 539.918 110.864C540.797 110.712 541.464 110.576 541.918 110.455L544.691 123.318C543.812 123.621 542.555 123.955 540.918 124.318C539.312 124.682 537.342 124.894 535.009 124.955C530.888 125.076 527.176 124.455 523.873 123.091C520.57 121.697 517.948 119.545 516.009 116.636C514.1 113.727 513.161 110.091 513.191 105.727V37.4545ZM580.939 125.364C573.939 125.364 567.893 123.909 562.802 121C557.742 118.061 553.848 113.909 551.12 108.545C548.393 103.152 547.03 96.803 547.03 89.5C547.03 82.3182 548.393 76.0152 551.12 70.5909C553.878 65.1364 557.727 60.8939 562.666 57.8636C567.605 54.803 573.408 53.2727 580.075 53.2727C584.378 53.2727 588.439 53.9697 592.257 55.3636C596.105 56.7273 599.499 58.8485 602.439 61.7273C605.408 64.6061 607.742 68.2727 609.439 72.7273C611.136 77.1515 611.984 82.4242 611.984 88.5455V93.5909H554.757V82.5H596.211C596.181 79.3485 595.499 76.5455 594.166 74.0909C592.833 71.6061 590.969 69.6515 588.575 68.2273C586.211 66.803 583.454 66.0909 580.302 66.0909C576.939 66.0909 573.984 66.9091 571.439 68.5455C568.893 70.1515 566.908 72.2727 565.484 74.9091C564.09 77.5151 563.378 80.3788 563.348 83.5V93.1818C563.348 97.2424 564.09 100.727 565.575 103.636C567.06 106.515 569.136 108.727 571.802 110.273C574.469 111.788 577.59 112.545 581.166 112.545C583.56 112.545 585.727 112.212 587.666 111.545C589.605 110.848 591.287 109.833 592.711 108.5C594.136 107.167 595.211 105.515 595.939 103.545L611.302 105.273C610.333 109.333 608.484 112.879 605.757 115.909C603.06 118.909 599.605 121.242 595.393 122.909C591.181 124.545 586.363 125.364 580.939 125.364Z" fill="white"/>
</svg>
